<svg xmlns="http://www.w3.org/2000/svg" viewBox="0 0 36.72 36.43"><path fill="currentColor" fill-rule="evenodd" d="M15.03,0c-.09,.01-.52,.1-.96,.2C8.51,1.46,3.75,5.36,1.37,10.6,.64,12.21-.06,14.66,.02,15.38c.07,.68,.6,1.29,1.3,1.5,.22,.07,1.84,.09,7.14,.09q6.84,0,7.24-.15c.48-.18,.98-.66,1.16-1.13,.12-.31,.13-.7,.15-6.96,.01-4.01,0-6.8-.05-7.05-.03-.23-.09-.45-.18-.66-.14-.29-.52-.69-.79-.83-.24-.12-.71-.22-.95-.19m5.96,.03c-.6,.1-1.14,.57-1.38,1.18-.1,.25-.11,1.93-.13,16.78-.01,10.63,0,16.63,.05,16.86,.09,.48,.23,.77,.53,1.08,.56,.58,1.11,.63,2.59,.27,6.25-1.54,11.26-6.2,13.2-12.28,.66-2.06,.86-3.37,.86-5.69s-.2-3.63-.86-5.69c-1.78-5.57-6.32-10.13-11.83-11.9-1.46-.47-2.58-.69-3.04-.61m-6.51,8.53v5.94h-5.91c-5.58,0-5.91,0-5.91-.12,0-.42,.72-2.37,1.27-3.45,.78-1.52,1.67-2.73,2.96-4.02,2.19-2.19,4.46-3.48,7.57-4.3,0,0,.02,2.67,.02,5.94M24.05,3.28c4.64,1.82,8.24,5.77,9.6,10.49,1.62,5.59,.08,11.62-4.04,15.74-1.96,1.97-4.5,3.48-6.99,4.15l-.63,.17V2.63l.63,.17c.35,.09,.99,.31,1.42,.48M1.31,19.58C.56,19.79,0,20.5,0,21.25c0,.56,.45,2.29,.96,3.61,.91,2.38,2.21,4.41,4.03,6.28,2.49,2.57,5.67,4.35,9.16,5.14,1.24,.28,1.74,.2,2.27-.35,.33-.33,.46-.62,.54-1.15,.04-.26,.06-3.04,.05-7.05-.02-6.26-.03-6.65-.15-6.96-.18-.47-.67-.95-1.16-1.13l-.39-.15h-6.88c-4.21,.01-6.97,.04-7.11,.08m13.18,8.32v5.94l-.62-.17c-2.63-.72-4.92-2.07-6.97-4.12-1.29-1.29-2.18-2.5-2.96-4.02-.55-1.08-1.27-3.02-1.27-3.45,0-.11,.33-.12,5.91-.12h5.91v5.94"/></svg>
