<svg xmlns="http://www.w3.org/2000/svg" viewBox="0 0 32 32"><path d="M23 10.36a1.21 1.21 0 1 1-1.21-1.21A1.22 1.22 0 0 1 23 10.36zM31 13v5a1 1 0 0 1-.67.95l-2.88 1A11 11 0 0 1 24.28 24L23 28.3a1 1 0 0 1-1 .7h-5a1 1 0 0 1-.95-.68L15.28 26h-1.56L13 28.32a1 1 0 0 1-1 .68H7a1 1 0 0 1-1-.82l-.81-4.52a10.91 10.91 0 0 1-4.16-7.15A19 19 0 0 1 1 14C1.8 7.71 7.71 3 14.8 3A14 14 0 0 1 21 4.2c.59-.15 1.78-.5 3.56-1.05a1 1 0 0 1 .9.16l1.24.93a1 1 0 0 1 .39 1l-.57 3.45a10.75 10.75 0 0 1 1.25 1.93l2.71 1.54A1 1 0 0 1 31 13zm-2 .58l-2.48-1.41a.94.94 0 0 1-.42-.46 8.26 8.26 0 0 0-1.39-2.09 1 1 0 0 1-.23-.83L25 5.48l-.36-.27c-2 .63-3.16 1-3.62 1a1 1 0 0 1-.63-.1A11.8 11.8 0 0 0 14.8 5C8.72 5 3.66 9 3 14.19a16.55 16.55 0 0 0 0 2.11 8.87 8.87 0 0 0 3.67 6 1 1 0 0 1 .4.64L7.84 27h3.44l.77-2.32A1 1 0 0 1 13 24h3a1 1 0 0 1 .95.68l.77 2.32h3.54l1.21-3.89a1 1 0 0 1 .35-.5 9.16 9.16 0 0 0 3-3.85 1 1 0 0 1 .6-.57l2.62-.9zM9.45 8.17l1.1 1.66S13.2 8.12 15.68 9l.64-1.9c-3.43-1.19-6.74.98-6.87 1.07z" fill="currentColor"/></svg>
