<svg xmlns="http://www.w3.org/2000/svg" viewBox="0 0 32 32"><path d="M31 13.5V28a1 1 0 0 1-1 1H2a1 1 0 0 1-1-1V13.5a1 1 0 0 1 1-1h8v2H3V27h26V14.5h-2v-2h3a1 1 0 0 1 1 1zM6 25h20v-2H6zm4.87-5l.7-3.53a1 1 0 0 1 .28-.51L22.48 5.29a1 1 0 0 0-1.4 0l-2.16 2.15L17.5 6l2.15-2.15a3 3 0 0 1 4.2 0 3 3 0 0 1 4.21 4.27l-12 12a.94.94 0 0 1-.51.27l-3.55.76h-.19a1 1 0 0 1-1-1.2zM25.28 5.32l-2.83 2.83 1.42 1.42 2.83-2.83a1 1 0 0 0 0-1.42 1 1 0 0 0-1.42 0zM13.12 18.9l1.77-.36L22.45 11 21 9.56l-7.57 7.57z" fill="currentColor"/></svg>
