<svg xmlns="http://www.w3.org/2000/svg" viewBox="0 0 313.6 313.6">
  <path d="M224.2 2H89.4C41.6 2 2 41.6 2 89.4v134.9c0 47.8 39.6 87.4 87.4 87.4h134.9c47.8 0 87.4-39.6 87.4-87.4V89.4C311.6 41.6 272 2 224.2 2zm59.2 222.1c0 32.8-26.4 59.2-59.2 59.2H89.4c-32.8 0-59.2-26.4-59.2-59.2V89.4c0-32.8 26.4-59.2 59.2-59.2h134.9c32.8 0 59.2 26.4 59.2 59.2v134.7z"/>
  <path d="M156.8 76.2c-44.5 0-80.6 36.1-80.6 80.6s36.1 80.6 80.6 80.6 80.6-36.1 80.6-80.6-36.2-80.6-80.6-80.6zm0 133c-28.9 0-52.4-23.5-52.4-52.4s23.5-52.4 52.4-52.4 52.4 23.5 52.4 52.4-23.5 52.4-52.4 52.4z"/>
  <circle cx="240" cy="73.2" r="18.9"/>
</svg>