<svg xmlns="http://www.w3.org/2000/svg" viewBox="0 0 40 40" fill="none"><path fill-rule="evenodd" clip-rule="evenodd" d="M36.25 9.82338H28.75L29.85 8.72632C30.8533 7.79396 31.2662 6.38979 30.9269 5.06467C30.5876 3.73955 29.5501 2.70482 28.2214 2.3664C26.8928 2.02799 25.4849 2.43987 24.55 3.44046L20 7.90352L15.5125 3.44046C14.5776 2.43987 13.1697 2.02799 11.8411 2.3664C10.5124 2.70482 9.47489 3.73955 9.13557 5.06467C8.79625 6.38979 9.20923 7.79396 10.2125 8.72632L11.3125 9.82338H3.75C3.05964 9.82338 2.5 10.3815 2.5 11.07V18.55C2.5 19.2385 3.05964 19.7967 3.75 19.7967H5V36.0033C5 36.6918 5.55964 37.25 6.25 37.25H33.75C34.4404 37.25 35 36.6918 35 36.0033V19.7967H36.25C36.9404 19.7967 37.5 19.2385 37.5 18.55V11.07C37.5 10.3815 36.9404 9.82338 36.25 9.82338ZM26.25 5.19825C26.5671 4.88425 27.028 4.76281 27.4592 4.87967C27.8904 4.99653 28.2263 5.33394 28.3405 5.7648C28.4546 6.19566 28.3296 6.65452 28.0125 6.96852L25.15 9.82338H21.6125L26.25 5.19825ZM11.6595 5.7648C11.5454 6.19566 11.6704 6.65452 11.9875 6.96852L14.85 9.82338H18.3875L13.75 5.19825C13.4329 4.88425 12.972 4.76281 12.5408 4.87967C12.1096 4.99653 11.7737 5.33394 11.6595 5.7648ZM5 12.3167H18.75V17.3034H5V12.3167ZM18.75 19.7967H7.5V34.7567H18.75V19.7967ZM32.5 34.7567H21.25V19.7967H32.5V34.7567ZM21.25 17.3034H35V12.3167H21.25V17.3034Z" fill="currentColor"/></svg>
