<svg xmlns="http://www.w3.org/2000/svg" viewBox="0 0 40 40" fill="none"><path fill-rule="evenodd" clip-rule="evenodd" d="M2.5 3.75H37.5C38.1904 3.75 38.75 4.30964 38.75 5V35C38.75 35.6904 38.1904 36.25 37.5 36.25H2.5C1.80964 36.25 1.25 35.6904 1.25 35V5C1.25 4.30964 1.80964 3.75 2.5 3.75ZM4.9 33.75H36.25V6.25H3.75V31.025L10.1625 21.8375C10.4806 21.3898 11.0537 21.2021 11.575 21.375L18.4125 23.575L28.2375 13.75H24.5875V11.25H31.25C31.9404 11.25 32.5 11.8096 32.5 12.5V19.1625H30V15.5125L19.6125 25.95C19.2831 26.273 18.8026 26.3883 18.3625 26.25L11.6875 24.0375L4.9 33.75Z" fill="currentColor"/></svg>
