<svg xmlns="http://www.w3.org/2000/svg" viewBox="0 0 20 14.98"><path fill="currentColor" fill-rule="evenodd" d="M15.46,.51l-.49,.51,.07,.09s.61,.65,1.28,1.34l1.21,1.25h-5.26l-5.26,.02v1.53h5.26l5.26,.02-1.28,1.33c-.91,.94-1.27,1.34-1.25,1.37,.01,.03,.24,.26,.5,.53l.48,.48,1.94-2.02c2.05-2.13,2.09-2.18,2.09-2.48s-.04-.35-2.02-2.41c-.65-.67-1.3-1.35-1.95-2.01l-.08-.07-.49,.51M2.09,8.01C.04,10.14,0,10.18,0,10.49s.04,.35,2.09,2.48l1.94,2.02,.47-.48c.26-.27,.49-.5,.5-.53,.02-.03-.35-.44-1.25-1.37l-1.28-1.33H7.74l5.26-.02v-1.53H7.74l-5.26-.02,1.28-1.33c.9-.93,1.27-1.34,1.25-1.37-.16-.18-.33-.36-.5-.53l-.47-.48-1.94,2.02"/></svg>
